<svg xmlns="http://www.w3.org/2000/svg" xmlns:xlink="http://www.w3.org/1999/xlink" width="63" height="57" viewBox="0 0 63 57">
    <defs>
        <path id="a" d="M.018.63h20.77v20.602H.018z"/>
        <path id="c" d="M0 57h62.846V.63H0z"/>
    </defs>
    <g fill="none" fill-rule="evenodd">
        <path fill="#FFB74D" fill-opacity=".1" d="M44 39.222L19 39l12.5 18zM63 10.878H41.927c-1.049-3.537-2.244-5.94-3.586-7.208C36.999 2.4 34.71 1.51 31.477 1c-3.665.686-6.032 1.576-7.1 2.67-1.068 1.094-2.209 3.497-3.423 7.208H1l9.322 12.787L31.477 36l21.83-12.335L63 10.878z"/>
        <path fill="#FFB74D" d="M0 10.59L30.647 29l.353-.591L.353 10zM31 28.406l.354.594L63 10.594 62.645 10zM31 57h1V45h-1z"/>
        <g>
            <g transform="translate(20.77)">
                <mask id="b" fill="#fff">
                    <use xlink:href="#a"/>
                </mask>
                <path fill="#FFB74D" d="M10.403 1.316C5.058 1.316.71 5.63.71 10.931c0 5.301 4.347 9.614 9.692 9.614s9.692-4.313 9.692-9.614c0-5.302-4.347-9.615-9.692-9.615m0 19.916C4.677 21.232.018 16.61.018 10.93S4.677.629 10.403.629s10.385 4.622 10.385 10.302-4.659 10.3-10.385 10.3" mask="url(#b)"/>
            </g>
            <mask id="d" fill="#fff">
                <use xlink:href="#c"/>
            </mask>
            <path fill="#FFB74D" d="M.22 10.931h20.74v-.687H.22zM9.133 23.292h12v-.686h-12zM41.325 23.292H53.21v-.686H41.325z" mask="url(#d)"/>
            <path fill="#FFB74D" d="M31.458 35.666l-.342-.597L52.81 22.822l.342.597z" mask="url(#d)"/>
            <path fill="#FFB74D" d="M31.23 35.894L9.22 23.368l.345-.595 22.01 12.526zM31.731 45.818l-.31-.614 12.634-6.31.31.614z" mask="url(#d)"/>
            <path fill="#FFB74D" d="M31.587 46.03L18.91 39.375l.322-.606 12.679 6.652z" mask="url(#d)"/>
            <path fill="#FFB74D" d="M18.81 39.46h25.573v-.688H18.811zM30.826 35.081h.692v-6.18h-.692zM53.096 23.5l-.55-.416 9.75-12.677.55.417z" mask="url(#d)"/>
            <path fill="#FFB74D" d="M32.031 56.912l-.565-.396 12.462-17.512.565.396z" mask="url(#d)"/>
            <path fill="#FFB74D" d="M31.336 56.912L18.616 39.1l.564-.398 12.721 17.813zM9.23 23.024L0 10.677l.556-.409 9.23 12.347zM41.095 11.045H62.786v-.687h-21.69z" mask="url(#d)"/>
        </g>
    </g>
</svg>
