<svg xmlns="http://www.w3.org/2000/svg" xmlns:xlink="http://www.w3.org/1999/xlink" width="250" height="225" viewBox="0 0 250 225">
    <defs>
        <path id="a" d="M.073.691H82.49v81.98H.073z"/>
        <path id="c" d="M0 225h249.387V.691H0z"/>
    </defs>
    <g fill="none" fill-rule="evenodd" opacity=".8">
        <path fill="#FEFEFE" d="M0 40.33L121.601 113l1.399-2.333L1.399 38zM123 110.653l1.406 2.347L250 40.347 248.591 38zM123 225h3v-48h-3z"/>
        <g>
            <g transform="translate(82.418)">
                <mask id="b" fill="#fff">
                    <use xlink:href="#a"/>
                </mask>
                <path fill="#FEFEFE" d="M41.281 3.423C20.073 3.423 2.82 20.584 2.82 41.68c0 21.096 17.253 38.257 38.461 38.257 21.21 0 38.462-17.16 38.462-38.257 0-21.097-17.253-38.258-38.462-38.258m0 79.248C18.56 82.671.073 64.283.073 41.681.073 19.078 18.559.69 41.28.69c22.723 0 41.21 18.388 41.21 40.99 0 22.603-18.487 40.991-41.21 40.991" mask="url(#b)"/>
            </g>
            <mask id="d" fill="#fff">
                <use xlink:href="#c"/>
            </mask>
            <path fill="#FEFEFE" d="M.87 41.682h82.306v-2.733H.87zM163.077 42.136h85.107v-2.733h-85.107zM36.242 90.87h47.62v-2.732h-47.62zM163.989 90.87h47.162v-2.732H163.99z" mask="url(#d)"/>
            <path fill="#FEFEFE" d="M124.834 140.107l-1.357-2.374 86.082-48.735 1.357 2.377z" mask="url(#d)"/>
            <path fill="#FEFEFE" d="M123.93 141.015L36.589 91.173l1.368-2.37 87.34 49.842zM125.918 180.504l-1.234-2.443 50.137-25.105 1.234 2.44z" mask="url(#d)"/>
            <path fill="#FEFEFE" d="M125.346 181.345L75.038 154.87l1.28-2.413 50.311 26.472z" mask="url(#d)"/>
            <path fill="#FEFEFE" d="M74.646 155.201h101.478v-2.732H74.646zM122.324 137.78h2.747v-24.594h-2.747zM210.699 91.698l-2.184-1.656 38.69-50.443 2.183 1.659z" mask="url(#d)"/>
            <path fill="#FEFEFE" d="M127.109 224.65l-2.242-1.578 49.45-69.684 2.242 1.577z" mask="url(#d)"/>
            <path fill="#FEFEFE" d="M124.35 224.65l-50.48-70.878 2.242-1.582 50.48 70.881zM36.63 89.805L0 40.673l2.206-1.628 36.63 49.13z" mask="url(#d)"/>
        </g>
    </g>
</svg>
